<svg width="512" height="512" viewBox="0 0 512 512" fill="none" xmlns="http://www.w3.org/2000/svg">
<g clip-path="url(#clip0_306_4261)">
<g clip-path="url(#clip1_306_4261)">
<g filter="url(#filter0_dddddd_306_4261)">
<circle cx="256" cy="256" r="242" fill="white"/>
</g>
<path d="M 334.5 182.8 C 340.5 158.6 389.1 108.6 414.8 85.4 C 415.7 84.7 416.9 84.9 417.2 86 C 421.4 100 426.7 174.8 393.3 217.6 C 376.5 239.1 347.8 229.7 336.2 211.2 C 330.3 201.9 332.3 191.6 334.5 182.8 Z" fill="black"/>
<path d="M 125.5 220.3 C 124.1 198.9 131.5 157.7 136.1 136.6 C 136.4 135.1 138.3 134.6 139.3 135.8 C 151.8 151.7 173.3 197.3 173.3 214.8 C 173.3 259.6 127.3 248.6 125.5 220.3 Z" fill="black"/>
<path d="M 190 196.9 C 185.1 175.6 206.4 124.5 213.3 108.7 C 214 107 216.4 107.2 216.9 108.9 C 221.4 124 234.5 169.7 235.3 194.1 C 236.2 223.5 195.9 222.1 190 196.9 Z" fill="black" stroke="black"/>
<path d="M 257 165.9 C 262.8 139.5 283.7 105.3 295.3 89.6 C 296.1 88.4 298 88.6 298.6 89.9 C 306 106.6 317.5 142.7 313.5 175.5 C 308 219.1 249.3 200.7 257 165.9 Z" fill="black"/>
<path fill-rule="evenodd" clip-rule="evenodd" d="M 262.8 451.1 C 264.6 478.1 307.2 468 306.3 451.1 C 306.3 449.5 303.7 445.8 300.7 441.4 C 295.9 434.4 289.9 425.7 291.3 421.3 C 295.3 409.9 299.1 405.1 304 399 C 307.3 394.8 311.2 390 315.8 382 C 339.9 345.8 350.7 292.6 347.1 269.4 C 344.6 252.9 337.2 242.4 323.2 231.8 C 275.9 201.2 207 219.6 158.5 272.1 C 110.8 329.3 113.1 389.8 150.3 423.2 C 178.6 446.9 221.6 449.8 262.8 426.8 C 265.9 425.1 265.1 429 264 434.6 C 263 439.6 261.8 446.1 262.8 451.1 Z M 185.7 398.8 C 205.5 417.4 243.5 408.8 270.5 379.6 C 297.6 350.3 303.4 311.5 283.6 292.8 C 263.8 274.2 225.8 282.8 198.8 312.1 C 171.8 341.3 165.9 380.1 185.7 398.8 Z" fill="black"/>
</g>
</g>
<defs>
<style>
.clip1_306_4261{
    fill: #000000
}
@media (prefers-color-scheme: dark) {
    .clip1_306_4261 {
        fill: #ffffff
    }
}
</style>

<clipPath id="clip1_306_4261">
<rect width="512" height="512"/>
</clipPath>
</defs>
</svg>
