<svg xmlns="http://www.w3.org/2000/svg" xmlns:xlink="http://www.w3.org/1999/xlink" width="451" height="287" contentScriptType="application/ecmascript" contentStyleType="text/css" style="width:451px;height:287px" preserveAspectRatio="none" version="1.1" viewBox="0 0 451 287" zoomAndPan="magnify"><defs><filter id="fkuw8qa32jzvh" width="300%" height="300%" x="-1" y="-1"><feGaussianBlur result="blurOut" stdDeviation="2"/><feColorMatrix in="blurOut" result="blurOut2" type="matrix" values="0 0 0 0 0 0 0 0 0 0 0 0 0 0 0 0 0 0 .4 0"/><feOffset dx="4" dy="4" in="blurOut2" result="blurOut3"/><feBlend in="SourceGraphic" in2="blurOut3" mode="normal"/></filter></defs><g><line style="stroke:#a80036;stroke-width:1;stroke-dasharray:5,5" x1="31" x2="31" y1="51.297" y2="233.156"/><line style="stroke:#a80036;stroke-width:1;stroke-dasharray:5,5" x1="91" x2="91" y1="51.297" y2="233.156"/><line style="stroke:#a80036;stroke-width:1;stroke-dasharray:5,5" x1="172.5" x2="172.5" y1="123.078" y2="233.156"/><line style="stroke:#a80036;stroke-width:1;stroke-dasharray:5,5" x1="237.5" x2="237.5" y1="174.875" y2="233.156"/><rect style="stroke:#a80036;stroke-width:1.5" width="43" height="30.297" x="8" y="16" fill="#FEFECE" filter="url(#fkuw8qa32jzvh)"/><text x="15" y="35.995" fill="#000" font-family="sans-serif" font-size="14" lengthAdjust="spacingAndGlyphs" textLength="29">Bob</text><rect style="stroke:#a80036;stroke-width:1.5" width="43" height="30.297" x="8" y="232.156" fill="#FEFECE" filter="url(#fkuw8qa32jzvh)"/><text x="15" y="252.151" fill="#000" font-family="sans-serif" font-size="14" lengthAdjust="spacingAndGlyphs" textLength="29">Bob</text><rect style="stroke:#a80036;stroke-width:1.5" width="49" height="30.297" x="65" y="16" fill="#FEFECE" filter="url(#fkuw8qa32jzvh)"/><text x="72" y="35.995" fill="#000" font-family="sans-serif" font-size="14" lengthAdjust="spacingAndGlyphs" textLength="35">Alice</text><rect style="stroke:#a80036;stroke-width:1.5" width="49" height="30.297" x="65" y="232.156" fill="#FEFECE" filter="url(#fkuw8qa32jzvh)"/><text x="72" y="252.151" fill="#000" font-family="sans-serif" font-size="14" lengthAdjust="spacingAndGlyphs" textLength="35">Alice</text><rect style="stroke:#a80036;stroke-width:1.5" width="56" height="30.297" x="142.5" y="232.156" fill="#FEFECE" filter="url(#fkuw8qa32jzvh)"/><text x="149.5" y="252.151" fill="#000" font-family="sans-serif" font-size="14" lengthAdjust="spacingAndGlyphs" textLength="42">Other</text><text x="212.5" y="245.151" fill="#000" font-family="sans-serif" font-size="14" lengthAdjust="spacingAndGlyphs" textLength="44">String</text><ellipse cx="237.5" cy="264.453" fill="#FEFECE" filter="url(#fkuw8qa32jzvh)" rx="12" ry="12" style="stroke:#a80036;stroke-width:2"/><polygon fill="#A80036" points="233.5 252.453 239.5 247.453 237.5 252.453 239.5 257.453 233.5 252.453" style="stroke:#a80036;stroke-width:1"/><polygon fill="#A80036" points="79.5 78.43 89.5 82.43 79.5 86.43 83.5 82.43" style="stroke:#a80036;stroke-width:1"/><line style="stroke:#a80036;stroke-width:1" x1="31.5" x2="85.5" y1="82.43" y2="82.43"/><text x="38.5" y="77.364" fill="#000" font-family="sans-serif" font-size="13" lengthAdjust="spacingAndGlyphs" textLength="30">hello</text><polygon fill="#A80036" points="130.5 107.563 140.5 111.563 130.5 115.563 134.5 111.563" style="stroke:#a80036;stroke-width:1"/><line style="stroke:#a80036;stroke-width:1" x1="91.5" x2="136.5" y1="111.563" y2="111.563"/><text x="98.5" y="106.497" fill="#000" font-family="sans-serif" font-size="13" lengthAdjust="spacingAndGlyphs" textLength="27">new</text><rect style="stroke:#a80036;stroke-width:1.5" width="56" height="30.297" x="142.5" y="90.43" fill="#FEFECE" filter="url(#fkuw8qa32jzvh)"/><text x="149.5" y="110.425" fill="#000" font-family="sans-serif" font-size="14" lengthAdjust="spacingAndGlyphs" textLength="42">Other</text><polygon fill="#A80036" points="200.5 137.727 210.5 141.727 200.5 145.727 204.5 141.727" style="stroke:#a80036;stroke-width:1"/><line style="stroke:#a80036;stroke-width:1" x1="91.5" x2="206.5" y1="141.727" y2="141.727"/><text x="212.5" y="180.722" fill="#000" font-family="sans-serif" font-size="14" lengthAdjust="spacingAndGlyphs" textLength="44">String</text><ellipse cx="237.5" cy="151.727" fill="#FEFECE" filter="url(#fkuw8qa32jzvh)" rx="12" ry="12" style="stroke:#a80036;stroke-width:2"/><polygon fill="#A80036" points="233.5 139.727 239.5 134.727 237.5 139.727 239.5 144.727 233.5 139.727" style="stroke:#a80036;stroke-width:1"/><path fill="#FBFB77" d="M267,150.3086 L267,175.3086 L439,175.3086 L439,160.3086 L429,150.3086 L267,150.3086" filter="url(#fkuw8qa32jzvh)" style="stroke:#a80036;stroke-width:1"/><path fill="#FBFB77" d="M429,150.3086 L429,160.3086 L439,160.3086 L429,150.3086" style="stroke:#a80036;stroke-width:1"/><text x="273" y="167.375" fill="#000" font-family="sans-serif" font-size="13" lengthAdjust="spacingAndGlyphs" textLength="151">You can also put notes!</text><polygon fill="#A80036" points="42.5 211.156 32.5 215.156 42.5 219.156 38.5 215.156" style="stroke:#a80036;stroke-width:1"/><line style="stroke:#a80036;stroke-width:1;stroke-dasharray:2,2" x1="36.5" x2="90.5" y1="215.156" y2="215.156"/><text x="48.5" y="210.09" fill="#000" font-family="sans-serif" font-size="13" lengthAdjust="spacingAndGlyphs" textLength="15">ok</text></g></svg>