<svg xmlns="http://www.w3.org/2000/svg"><metadata>Created by FontForge 20120731 at Sat Aug 20 15:07:44 2016 By admin</metadata><defs><font id="iconfont" horiz-adv-x="1024"><font-face x-height="792" ascent="896" bbox="0 -128 1147.4 896" descent="-128" font-family="iconfont" font-stretch="normal" font-weight="500" panose-1="2 0 6 3 0 0 0 0 0 0" underline-position="-100" underline-thickness="50" unicode-range="U+0078-E61E" units-per-em="1024"/><glyph d="M34 0v682h272v-682h-272zM68 34h204v614h-204v-614z" glyph-name=".notdef" horiz-adv-x="374"/><glyph glyph-name=".null" horiz-adv-x="0"/><glyph glyph-name="nonmarkingreturn" horiz-adv-x="341"/><glyph d="M281 543q-27 -1 -53 -1h-83q-18 0 -36.5 -6t-32.5 -18.5t-23 -32t-9 -45.5v-76h912v41q0 16 -0.5 30t-0.5 18q0 13 -5 29t-17 29.5t-31.5 22.5t-49.5 9h-133v-97h-438v97zM955 310v-52q0 -23 0.5 -52t0.5 -58t-10.5 -47.5t-26 -30t-33 -16t-31.5 -4.5q-14 -1 -29.5 -0.5 t-29.5 0.5h-32l-45 128h-439l-44 -128h-29h-34q-20 0 -45 1q-25 0 -41 9.5t-25.5 23t-13.5 29.5t-4 30v167h911zM163 247q-12 0 -21 -8.5t-9 -21.5t9 -21.5t21 -8.5q13 0 22 8.5t9 21.5t-9 21.5t-22 8.5zM316 123q-8 -26 -14 -48q-5 -19 -10.5 -37t-7.5 -25t-3 -15t1 -14.5 t9.5 -10.5t21.5 -4h37h67h81h80h64h36q23 0 34 12t2 38q-5 13 -9.5 30.5t-9.5 34.5q-5 19 -11 39h-368zM336 498v228q0 11 2.5 23t10 21.5t20.5 15.5t34 6h188q31 0 51.5 -14.5t20.5 -52.5v-227h-327z" glyph-name="x" horiz-adv-x="1001" unicode="x"/><glyph d="M358 296q-18 -2 -31 -16t-13 -30t13.5 -26t33 -7.5t33 15.5t13.5 29t-13.5 26.5t-35.5 8.5zM423 314q-6 -5 -7.5 -13t2.5 -13q3 -6 10 -6.5t13.5 4.5t8.5 12.5t-1.5 13.5t-10.5 6.5t-15 -4.5zM512.5 893q-103.5 0 -198 -40t-163 -108.5t-108.5 -163t-40 -198t40 -198 t108.5 -162.5t163 -108.5t198 -40.5t198 40.5t162.5 108.5t108.5 162.5t40.5 198t-40.5 198t-108.5 163t-162.5 108.5t-198 40zM791 256q-27 -57 -92 -98t-140.5 -58t-146.5 -11q-43 3 -81.5 10.5t-80.5 23t-73 38t-53 58.5t-27 82q-1 2 -1 7.5t2 23t7.5 35.5t18.5 45t33 53 q4 5 11.5 15t31 36t47.5 48t58.5 45.5t67.5 34.5t57.5 11.5t38 -6.5t21.5 -20.5t10.5 -25.5t2.5 -26q-1 -5 -3 -13.5t-2.5 -12t-1 -8.5t1.5 -6.5t5.5 -3t9.5 -0.5t15 4q5 2 13 5.5t30.5 10t41.5 9t41.5 -1.5t35.5 -17q17 -17 18.5 -39.5t-5.5 -36.5l-7 -14q-1 -1 -1.5 -2 t-1.5 -4.5t0 -6.5t6 -6t14 -5q11 -2 25.5 -8.5t31.5 -21t27.5 -33t10 -47.5t-16.5 -63zM678 585q-9 0 -15.5 7t-6.5 16t6.5 15.5t15.5 6.5q3 1 8 1.5t19.5 0.5t27 -3t27.5 -11t25 -21.5t15 -36.5t2 -54q0 -1 -1 -3q-1 -8 -7 -13t-15 -5t-15.5 6.5t-6.5 15.5l1 11q1 10 0 23 t-8.5 26t-24.5 18.5t-47 -0.5zM915 480q-1 -19 -4.5 -28t-6.5 -10t-10 1t-10 2q-15 0 -24 7t-9 20q0 7 1.5 14.5t3.5 10.5l1 4q15 51 -10 107q-14 24 -34.5 41t-40 24.5t-39 12.5t-31.5 3.5t-17 -1.5l-29 -8q-14 0 -23.5 9.5t-9.5 23.5q0 11 7 19.5t17 11.5h1q1 1 2.5 1 t17 4t26.5 6t33 3.5t36 -3.5q35 -8 68 -28.5t61 -55.5t34.5 -82t-11.5 -109zM422 457q-103 -5 -174.5 -54t-71.5 -116q0 -69 72 -113.5t174 -39.5q102 4 174.5 58.5t72.5 123.5q0 67 -71 106.5t-176 34.5zM515 228q-33 -43 -87.5 -55t-116.5 18q-17 9 -26.5 24.5t-9.5 26.5 l-1 10q0 3 -0.5 7.5t0.5 18.5t4.5 26.5t12 28.5t21 28.5t34 22.5t49.5 13q49 5 82.5 -12.5t45.5 -46t10 -59.5t-18 -51z" glyph-name="uniE600" unicode=""/><glyph d="M512 892q-103 0 -197 -40.5t-162.5 -108.5t-108.5 -162t-40 -197.5t40 -197.5t108.5 -162t162.5 -108.5t197.5 -40.5t197.5 40.5t162 108.5t108.5 162t40.5 197.5t-40.5 197.5t-108.5 162t-162 108.5t-198 40.5zM644 384h-84v-305h-114v305h-76v105h76v62q0 70 26.5 104 t97.5 34h84v-106h-52q-28 0 -35 -9t-7 -33v-52h95zM644 384z" glyph-name="uniE601" unicode=""/><glyph d="M512 896q-104 0 -199 -40.5t-163.5 -109t-109 -163.5t-40.5 -199t40.5 -199t109 -163.5t163.5 -109t199 -40.5t199 40.5t163.5 109t109 163.5t40.5 199t-40.5 199t-109 163.5t-163.5 109t-199 40.5zM309.5 130q-21.5 0 -37 15.5t-15.5 37t15.5 37t37 15.5t37 -15.5 t15.5 -37t-15.5 -37t-37 -15.5zM519 129q0 109 -77 186t-186 77v110q102 0 188 -50t135.5 -136t49.5 -187h-110zM720 129q0 94 -37 180t-99 148t-148 99t-180 37v110q117 0 223.5 -45.5t183.5 -122.5t122.5 -183t45.5 -223h-111z" glyph-name="uniE602" unicode=""/><glyph d="M1024 612v13q0 6 -0.5 10.5t-0.5 6.5q0 40 -5 68q-8 37 -21 63q-14 28 -41 55t-55 41q-26 14 -63 21q-28 5 -68 5q-2 0 -7 0.5t-11 0.5h-12h-38h-380h-38h-12q-6 0 -11 -0.5t-8 -0.5q-39 0 -67 -5q-37 -8 -63 -21q-28 -14 -55 -41t-41 -55q-14 -26 -21 -63q-5 -28 -5 -68 q0 -2 -0.5 -7t-0.5 -11v-12v-38v-380v-38v-12q0 -6 0.5 -11t0.5 -8q0 -39 5 -67q8 -37 21 -63q14 -28 41 -55t55 -41q26 -14 63 -21q28 -5 68 -5q2 0 7 -0.5t11 -0.5h12h38h380h38h12q6 0 11 0.5t7 0.5q40 0 67 5q38 8 64 21q28 14 55 41t41 55q13 26 21 63q5 28 5 67v8 q0 5 0.5 10.5t0.5 12.5v38v380v38zM807 533q-3 -193 -116 -315t-298 -130q-121 -6 -238 69q54 -9 116.5 9t100.5 51q-105 11 -137 105q31 -6 64 1q-54 18 -84.5 53.5t-31.5 95.5q35 -16 63 -18q-39 23 -56 85t12 115q63 -69 135 -109.5t173 -46.5q-11 45 3.5 84t46 61.5 t68.5 32.5t75 -1t63 -41q42 8 95 36q-15 -48 -62 -82q47 6 80 23q-15 -30 -72 -78z" glyph-name="uniE603" unicode=""/><glyph d="M511 -128q-104 0 -198.5 40.5t-163 109t-109 163.5t-40.5 200q0 104 40.5 198.5t109 163t163 109t198.5 40.5q105 0 200 -40.5t163.5 -109t109 -163t40.5 -198.5q0 -105 -40.5 -200t-109 -163.5t-163.5 -109t-200 -40.5zM368 490h-99v-320h99v320zM377 585q0 24 -16.5 40 t-42.5 16q-27 0 -44.5 -15.5t-17.5 -40.5q0 -23 17 -39.5t43 -16.5q28 0 44.5 16t16.5 40zM768 347q0 71 -35.5 107.5t-91.5 36.5q-39 0 -66 -16.5t-33 -35.5v51h-112q2 -27 0 -320h112v173q0 20 2 26q14 39 54 39q56 0 56 -72v-166h114v177z" glyph-name="uniE604" unicode=""/><glyph d="M329 128q0 -46 -32 -78t-77.5 -32t-77.5 32t-32 78t32 78t77.5 32t77.5 -32t32 -78zM622 58q1 -16 -10 -28q-10 -12 -27 -12h-77q-14 0 -24.5 9.5t-11.5 23.5q-13 131 -105.5 224t-223.5 106q-15 1 -24 11t-9 25v77q0 16 12 27q9 9 24 9h3q92 -7 175 -45.5t148 -103.5 t103.5 -148.5t46.5 -174.5zM914 57q1 -16 -10 -27q-10 -12 -26 -12h-82q-15 0 -25.5 10t-11.5 25q-6 122 -57 233t-132.5 192t-192 132t-233.5 59q-14 0 -24 10.5t-10 25.5v81q0 16 11 27q10 10 25 10h2q150 -8 286.5 -69t243.5 -168q107 -106 168 -243t68 -286z" glyph-name="uniE605" unicode=""/><glyph d="M651 384q0 -58 -41 -98.5t-98 -40.5q-58 0 -98.5 41t-40.5 98q0 26 10 53h-76v-209q0 -20 14.5 -34.5t34.5 -14.5h314q20 0 34.5 14.5t14.5 34.5v209h-76q8 -22 8 -53zM709 495v75v11h-11h-75v-86h86zM512 294q37 0 63.5 26.5t26.5 63.5q0 27 -16 53q-27 37 -74 37 t-74 -37q-16 -23 -16 -53q0 -37 26.5 -63.5t63.5 -26.5zM512 896q-139 0 -257 -68.5t-186.5 -186.5t-68.5 -257t68.5 -257t186.5 -186.5t257 -68.5t257 68.5t186.5 186.5t68.5 257t-68.5 257t-186.5 186.5t-257 68.5zM768 437v-209q0 -41 -29 -69.5t-69 -28.5h-316 q-41 0 -69.5 29t-28.5 69v209v105q0 41 29 69.5t69 28.5h314q41 0 69.5 -29t28.5 -69v-105h2z" glyph-name="uniE606" unicode=""/><glyph d="M522 890q-106 2 -202.5 -38t-166 -109.5t-109.5 -166t-38 -202.5q2 -99 42 -190t106.5 -157.5t157.5 -106.5t190 -42q106 -2 202.5 38t166 109.5t109.5 166t38 202.5q-2 99 -42 190t-106.5 157.5t-157.5 106.5t-190 42zM307 597h411v-47h-411v47zM682 502v-181h-340v181 h340zM730 171h-436v46h127q-16 35 -45 79l45 18q27 -40 49 -97h86q24 41 44 97l50 -18q-19 -44 -42 -79h122v-46zM392 456h241v-89h-241v89zM392 456z" glyph-name="uniE607" unicode=""/><glyph d="M512 -128q139 0 257 68.5t186.5 186.5t68.5 257t-68.5 257t-186.5 186.5t-257 68.5t-257 -68.5t-186.5 -186.5t-68.5 -257t68.5 -257t186.5 -186.5t257 -68.5zM361.5 515q43.5 -22 89 -33.5t69.5 -12.5l23 -1l-3 12q-1 8 -1.5 29.5t4.5 40.5t22 41t44 36t54 15.5t46 -6 t34.5 -17t22.5 -17.5l8 -8q17 4 29 9q6 2 13.5 5t12.5 6l5 2l-30 -54l47 5q-6 -8 -25 -25l-26 -26q-1 -3 0 -14.5t-2 -38.5t-8.5 -55t-19 -63t-33.5 -63q-54 -79 -124.5 -123t-165.5 -53q-40 -4 -73 -1t-60 9.5t-45.5 14t-28.5 12.5l-9 5q57 3 93 17q16 7 38.5 19.5 t36.5 21.5l14 10q-74 23 -101 49q-12 11 -20.5 21.5t-10.5 14.5l-3 5l74 1q-78 41 -99 73q-10 15 -16.5 31t-7.5 25l-1 8l56 -22q-47 64 -53 113q-3 25 -1 42t5 26l4 9q3 -5 9.5 -14t38 -34t75 -47z" glyph-name="uniE608" unicode=""/><glyph d="M512 896q-104 0 -199 -40.5t-163.5 -109t-109 -163.5t-40.5 -199t40.5 -199t109 -163.5t163.5 -109t199 -40.5t199 40.5t163.5 109t109 163.5t40.5 199t-40.5 199t-109 163.5t-163.5 109t-199 40.5zM512 -94q-97 0 -185.5 38t-152.5 102t-102 152.5t-38 185.5t38 185.5 t102 152.5t152.5 102t185.5 38t185.5 -38t152.5 -102t102 -152.5t38 -185.5t-38 -185.5t-102 -152.5t-152.5 -102t-185.5 -38zM793 542q5 10 9 21q3 11 -6 18.5t-19 1.5q-25 -15 -53 -22q-35 32 -82 32q-50 0 -86 -36t-36 -86q0 -2 1 -5q-112 14 -184 101q-5 7 -14 6.5 t-14 -8.5q-16 -28 -16 -61q0 -31 14 -58q-3 0 -7 -2q-8 -5 -8 -16q0 -55 42 -92h-1v-1q-6 -7 -3 -16q17 -54 69 -76q-51 -25 -108 -18q-14 1 -18 -12q-5 -12 6 -20q78 -50 170 -50q72 0 132.5 27.5t100 72.5t61.5 101t22 115q0 3 -1 5q29 22 50 53q7 11 -1.5 20.5t-19.5 4.5 zM737 486q-7 -5 -7 -15v-12q0 -53 -19.5 -103t-54.5 -90t-89 -64t-118 -24q-47 0 -92 15q54 10 97 45q10 7 6 18.5t-16 11.5q-44 1 -70 37q12 1 24 4q13 4 12.5 17.5t-13.5 15.5q-24 5 -42 21.5t-25 39.5q13 -3 26 -4q13 1 17 12q4 13 -7 20q-39 26 -39 73q0 10 3 21 q86 -89 209 -95q9 0 14 6q6 6 4 15q-3 10 -3 20q0 36 26 61.5t62 25.5q38 0 64 -27q7 -7 16 -5q8 1 16 3l-8 -4q-11 -8 -7 -21q5 -13 18 -11q3 0 6 1z" glyph-name="uniE609" horiz-adv-x="1025" unicode=""/><glyph d="M704 512h128v-448h-128v448zM448 704h128v-640h-128v640zM192 320h128v-256h-128v256z" glyph-name="uniE60A" unicode=""/><glyph d="M1008 793v-818q0 -35 -26 -61t-61 -26h-818q-36 0 -61.5 26t-25.5 61v818q0 35 26 61t61 26h818q35 0 61 -26t26 -61zM345 617q0 28 -18 46.5t-48 18.5t-49 -18.5t-19 -46.5t18.5 -46t47.5 -18q32 0 50.5 18t17.5 46zM214 86h127v416h-127v-416zM679 86h128v245 q0 89 -41 134.5t-106 45.5q-47 0 -79 -21t-48 -47h-2l-6 59h-110q3 -115 3 -133v-283h127v239q0 21 4 33q20 49 65 49q65 0 65 -90v-231z" glyph-name="uniE60B" unicode=""/><glyph d="M1008 793v-818q0 -35 -26 -61t-61 -26h-818q-36 0 -61.5 26t-25.5 61v818q0 35 26 61t61 26h818q35 0 61 -26t26 -61zM822 634l20 117q-18 7 -54 10.5t-62 3.5l-26 1q-78 0 -122 -58q-25 -33 -25 -118v-6v-35v-36h-79v-114h79v-397h147v397h118l8 114h-126v36v41v12 q0 42 59 42q31 0 63 -10z" glyph-name="uniE60C" unicode=""/><glyph d="M1 371q0 -165 95.5 -297.5t246.5 -184.5q6 -2 10 -2t6.5 1.5t4 3t2 5t0.5 5.5v6v6v88q-37 -4 -66 0.5t-45 14t-28.5 23.5t-17.5 25.5t-9 23.5t-6 15q-8 14 -26 27t-27 20.5t-2 14.5q50 26 113 -66q34 -51 118 -30q10 40 40 70q-115 20 -171.5 85t-55.5 158q0 87 55 150 q-22 66 5 137q30 3 66 -10.5t50 -23t25 -18.5q58 16 129 16q70 0 129 -16q13 10 28.5 19.5t49 21.5t61.5 9q26 -71 6 -134q56 -64 56 -152q0 -92 -56.5 -157t-172.5 -86q44 -42 44 -104v-128v-3l2 -9q0 -3 4 -6t11 -3q154 52 251 185t97 300q0 104 -40.5 198.5t-109 162.5 t-163 108.5t-198.5 40.5t-198.5 -40t-163 -108.5t-109 -163t-40.5 -198.5z" glyph-name="uniE60D" unicode=""/><glyph d="M512 896q-105 0 -193 -51t-139.5 -139.5t-51.5 -194.5q0 -161 264 -495q66 -85 120 -144q8 9 22 24.5t53.5 64t76 95.5t81 112t76 122t53.5 117t22 104q0 106 -51.5 194.5t-139.5 139.5t-193 51zM512 366q-67 0 -114.5 48.5t-47.5 117t47.5 116.5t114.5 48t114.5 -48 t47.5 -116.5t-47.5 -117t-114.5 -48.5z" glyph-name="uniE60E" unicode=""/><glyph d="M854 896h-684q-70 0 -120 -50t-50 -120v-684q0 -70 50 -120t120 -50h684q70 0 120 50t50 120v684q0 70 -50 120t-120 50zM328 448h368q11 -31 11 -64q0 -81 -57 -138t-138 -57t-138 57t-57 138q0 33 11 64zM896 448v-384q0 -26 -19 -45t-45 -19h-640q-26 0 -45 19t-19 45 v384h100q-7 -32 -7 -64q0 -120 85.5 -205.5t205.5 -85.5t205.5 85.5t85.5 205.5q0 32 -7 64h100zM896 672q0 -13 -9.5 -22.5t-22.5 -9.5h-64q-13 0 -22.5 9.5t-9.5 22.5v64q0 13 9.5 22.5t22.5 9.5h64q13 0 22.5 -9.5t9.5 -22.5v-64z" glyph-name="uniE60F" unicode=""/><glyph d="M512 896q-54 0 -105.5 -12.5t-101 -42t-86.5 -73.5t-59.5 -111.5t-22.5 -151.5q0 -57 18.5 -121.5t46 -120.5t65.5 -114.5t70 -100.5t67.5 -82.5t49.5 -55t24 -24.5q14 -14 34 -14t34 14q10 9 24.5 24t49.5 55.5t67 82.5t70 100.5t65.5 114.5t46 120.5t18.5 121.5 q0 84 -22.5 151.5t-59.5 111.5t-86.5 73.5t-101 42t-105.5 12.5zM512 -8q-31 34 -61 70t-71 94t-71.5 112.5t-52 118.5t-21.5 118q0 56 12 102t31 75.5t45.5 52t51.5 34t53.5 18.5t47 9t36.5 2t36.5 -2t47 -9t53.5 -18.5t51.5 -34t45.5 -52t31 -75.5t12 -102 q0 -54 -21.5 -118t-52 -118.5t-71.5 -112.5t-71 -94t-61 -70zM512 716q-80 0 -137 -56.5t-57 -136.5t57 -137t137 -57t137 57t57 137t-57 136.5t-137 56.5zM512 402q-50 0 -85 35.5t-35 85t35 85t85 35.5t85 -35.5t35 -85t-35 -85t-85 -35.5z" glyph-name="uniE610" unicode=""/><glyph d="M436 524v-96h-77v-115h77v-269h115v269h115v115h-115v77q0 17 10.5 27.5t28.5 10.5h76v116h-96q-54 0 -94 -40t-40 -95zM512 862q-97 0 -185.5 -38t-152.5 -102t-102 -152.5t-38 -185.5t38 -185.5t102 -152.5t152.5 -102t185.5 -38t185.5 38t152.5 102t102 152.5 t38 185.5t-38 185.5t-102 152.5t-152.5 102t-185.5 38zM830.5 65.5q-62.5 -62.5 -143.5 -96.5q-83 -35 -175 -35t-175 35q-81 34 -143.5 96.5t-96.5 143.5q-35 83 -35 175t35 175q34 81 96.5 143.5t143.5 96.5q84 35 175 35t175 -35q81 -34 143.5 -96.5t96.5 -143.5 q35 -84 35 -175t-35 -175q-34 -81 -96.5 -143.5z" glyph-name="uniE611" unicode=""/><glyph d="M677 384q0 -68 -48.5 -116.5t-116.5 -48.5t-116.5 48.5t-48.5 116.5q0 16 4 32h-111v-219q0 -35 25 -60t60 -25h374q35 0 60 25t25 60v219h-111q4 -16 4 -32zM699 656h-374q-35 0 -60 -25t-25 -60v-92h138q22 32 57.5 51t76.5 19t76.5 -19t57.5 -51h138v92q0 35 -25 60 t-60 25zM741 551q0 -6 -4.5 -10.5t-10.5 -4.5h-46q-6 0 -10.5 4.5t-4.5 10.5v46q0 6 4.5 10.5t10.5 4.5h46q6 0 10.5 -4.5t4.5 -10.5v-46zM613 384q0 42 -29.5 71.5t-71.5 29.5t-71.5 -29.5t-29.5 -71.5t29.5 -71.5t71.5 -29.5t71.5 29.5t29.5 71.5zM512 862 q-97 0 -185.5 -38t-152.5 -102t-102 -152.5t-38 -185.5t38 -185.5t102 -152.5t152.5 -102t185.5 -38t185.5 38t152.5 102t102 152.5t38 185.5t-38 185.5t-102 152.5t-152.5 102t-185.5 38zM830.5 65.5q-62.5 -62.5 -143.5 -96.5q-83 -35 -175 -35t-175 35 q-81 34 -143.5 96.5t-96.5 143.5q-35 83 -35 175t35 175q34 81 96.5 143.5t143.5 96.5q84 35 175 35t175 -35q81 -34 143.5 -96.5t96.5 -143.5q35 -84 35 -175t-35 -175q-34 -81 -96.5 -143.5z" glyph-name="uniE612" unicode=""/><glyph d="M512 896q-104 0 -199 -40.5t-163.5 -109t-109 -163.5t-40.5 -199t40.5 -199t109 -163.5t163.5 -109t199 -40.5t199 40.5t163.5 109t109 163.5t40.5 199t-40.5 199t-109 163.5t-163.5 109t-199 40.5zM512 -94q-97 0 -185.5 38t-152.5 102t-102 152.5t-38 185.5t38 185.5 t102 152.5t152.5 102t185.5 38t185.5 -38t152.5 -102t102 -152.5t38 -185.5t-38 -185.5t-102 -152.5t-152.5 -102t-185.5 -38zM624 671h-85q-39 1 -65 -10t-37.5 -32t-16 -43t-4.5 -53v-53h-48q-7 1 -11.5 -4t-4.5 -12v-96q0 -7 4.5 -12t11.5 -4h48v-239q-1 -7 4 -12t12 -4 h98q7 -1 11.5 4t2.5 12v239h80q7 -1 12 4t4 12v96q1 7 -4 12t-12 4h-80v48q2 14 5 15.5t17 0.5h57q11 2 13 3q5 6 4 13v95q1 7 -4 12t-12 4zM607 577l-40 2q-34 0 -44 -14.5t-10 -40.5v-60q0 -7 5 -12t12 -5h78v-62h-78q-7 0 -12 -5t-5 -12v-239h-65v239q0 7 -4.5 12 t-11.5 5h-48v62h48q7 0 12 5q4 4 4 12v69q0 57 18 81t73 24h68v-61z" glyph-name="uniE613" horiz-adv-x="1025" unicode=""/><glyph d="M128 0h896v-128h-1024v1024h128v-896zM288 64q-40 0 -68 28t-28 68t28 68t68 28h8l104 172q-16 24 -16 52q0 40 28 68t68 28t68 -28t28 -68q0 -29 -16 -52l104 -172h8h6l171 298q-17 24 -17 54q0 40 28 68t68 28t68 -28t28 -68t-28 -68t-68 -28h-6l-171 -298 q17 -24 17 -54q0 -40 -28 -68t-68 -28t-68 28t-28 68q0 29 16 52l-104 172h-8h-8l-104 -172q16 -23 16 -52q0 -40 -28 -68t-68 -28z" glyph-name="uniE614" unicode=""/><glyph d="M624 513q-28 0 -50 -12q-4 13 -16 11h-96q-7 1 -11.5 -4t-2.5 -12v-351q-2 -7 2.5 -12t11.5 -4h96q7 -1 12 4t5 12v212q-1 1 -0.5 3.5t2 6.5t4.5 8q7 8 26 8q28 0 33 -27v-211q-3 -7 1.5 -12t11.5 -4h101q7 -1 11.5 4t1.5 12v218q2 40 -10.5 70t-34 47t-46.5 25t-52 8z M737 160h-67v196q0 28 -17 44.5t-46 16.5q-33 0 -51 -19q-11 -12 -13.5 -28t1.5 -18v-192h-65v319h62v-11q0 -10 9.5 -14.5t17.5 1.5l4 3q27 21 52 21q11 0 22.5 -1.5t28.5 -8.5t30 -18.5t22.5 -34.5t9.5 -53v-203zM352 672q-27 0 -46 -19t-19 -45.5t19 -45.5t46 -19t46 19 t19 45.5t-19 45.5t-46 19zM352.5 577q-12.5 0 -22 9t-9.5 21.5t9.5 21.5t22 9t21.5 -9t9 -21.5t-9 -21.5t-21.5 -9zM398 513h-95q-7 0 -11.5 -5t-3.5 -12v-351q-1 -7 3.5 -12t11.5 -4h95q7 -1 12 4t5 12v351q0 7 -5 12t-12 5zM384 160h-64v319h64v-319zM512 896 q-104 0 -199 -40.5t-163.5 -109t-109 -163.5t-40.5 -199t40.5 -199t109 -163.5t163.5 -109t199 -40.5t199 40.5t163.5 109t109 163.5t40.5 199t-40.5 199t-109 163.5t-163.5 109t-199 40.5zM512 -94q-97 0 -185.5 38t-152.5 102t-102 152.5t-38 185.5t38 185.5t102 152.5 t152.5 102t185.5 38t185.5 -38t152.5 -102t102 -152.5t38 -185.5t-38 -185.5t-102 -152.5t-152.5 -102t-185.5 -38z" glyph-name="uniE615" unicode=""/><glyph d="M927 858q24 0 41.5 -17.5t17.5 -41.5v-830q0 -24 -17.5 -41.5t-41.5 -17.5h-830q-24 0 -41.5 17.5t-17.5 41.5v830q0 24 17.5 41.5t41.5 17.5h830zM177 720v-77h649v77h-649zM218 580v-312h56l67 -142h-184v-75h686v75h-189l69 142h61v312h-566zM685 503v-161h-372v161 h372zM571 126h-144l-67 142h279z" glyph-name="uniE616" unicode=""/><glyph d="M512 895q-104 0 -198.5 -40.5t-163 -109t-109 -163t-40.5 -198.5t40.5 -198.5t109 -163t163 -109t198.5 -40.5t198.5 40.5t163 109t109 163t40.5 198.5t-40.5 198.5t-109 163t-163 109t-198.5 40.5zM670 -83q-17 -3 -25.5 4.5t-8.5 19.5v49v87q0 63 -34 92 q38 4 67.5 11.5t60.5 25t52 43t34.5 67.5t13.5 97q0 77 -51 133q24 59 -5 131q-2 1 -5.5 1.5t-15.5 -1t-26.5 -5.5t-38.5 -16t-51 -30q-59 17 -125 17q-65 0 -125 -17q-42 29 -76.5 41.5t-47.5 11.5l-13 -2q-29 -72 -5 -131q-51 -56 -51 -133q0 -55 13.5 -97t34 -67.5 t52 -43t61 -25.5t66.5 -12q-25 -22 -32 -66q-14 -6 -29 -9.5t-36.5 -3.5t-42.5 14t-37 40q-3 5 -8.5 13t-25.5 22.5t-42 15.5h-5q-3 0 -9 -1.5t-8 -4.5t2 -9t16 -15q4 -2 10 -6t21 -22.5t25 -43.5q0 -2 1.5 -5.5t7 -13.5t13.5 -17t21.5 -17t30.5 -13.5t41 -6t53 5.5v-51v-33 q0 -12 -8.5 -19.5t-25.5 -4.5q-150 50 -245.5 179t-95.5 291q0 101 39.5 192.5t106.5 158t159.5 106t193.5 39.5t193.5 -39.5t159.5 -106t106.5 -158t39.5 -192.5q0 -162 -95.5 -291t-245.5 -179z" glyph-name="uniE617" unicode=""/><glyph d="M512 896q-139 0 -257 -68.5t-186.5 -186.5t-68.5 -257t68.5 -257t186.5 -186.5t257 -68.5t257 68.5t186.5 186.5t68.5 257t-68.5 257t-186.5 186.5t-257 68.5zM512 -48q-179 0 -305.5 126.5t-126.5 305.5t126.5 305.5t305.5 126.5t305.5 -126.5t126.5 -305.5 t-126.5 -305.5t-305.5 -126.5zM256 435v-102q85 0 145 -60t60 -145h102q0 127 -90 217t-217 90zM256 640v-102q111 0 205.5 -55t149.5 -149.5t55 -205.5h102q0 139 -68.5 257t-186.5 186.5t-257 68.5zM307 230q-21 0 -36 -15t-15 -36t15 -36t36 -15t36 15t15 36t-15 36 t-36 15z" glyph-name="uniE618" unicode=""/><glyph d="M918 798l-255 1q-17 0 -20.5 -8.5t8.5 -19.5l95 -96l-309 -309q-19 -19 -19 -45.5t19 -45t45.5 -18.5t44.5 19l309 308l95 -95q11 -12 19.5 -8.5t8.5 20.5l-1 256q0 17 -11.5 29t-28.5 12zM783 352q-19 0 -33 -13.5t-15 -33.5v-176q0 -27 -18.5 -45.5t-44.5 -18.5h-447 q-27 0 -45.5 18.5t-18.5 45.5v447q0 26 18.5 44.5t45.5 18.5h305q19 2 32 15.5t13 32.5t-13 33t-32 15h-337q-53 0 -90.5 -37.5t-37.5 -90.5v-510q0 -53 37.5 -90.5t90.5 -37.5h511q52 0 89.5 37.5t37.5 90.5v208q0 20 -14 33.5t-34 13.5zM783 352z" glyph-name="uniE619" unicode=""/><glyph d="M609 -128h100h65h-165zM251 -128h65h100h-165zM512 -128zM896 896h-768q-53 0 -90.5 -37.5t-37.5 -90.5v-768q0 -53 37.5 -90.5t90.5 -37.5h768q53 0 90.5 37.5t37.5 90.5v768q0 53 -37.5 90.5t-90.5 37.5zM960 0q0 -26 -19 -45t-45 -19h-768q-26 0 -45 19t-19 45v768 q0 26 19 45t45 19h768q26 0 45 -19t19 -45v-768zM304 528q-13 0 -22.5 -9.5t-9.5 -22.5v-384q0 -13 9.5 -22.5t22.5 -9.5t22.5 9.5t9.5 22.5v384q0 13 -9.5 22.5t-22.5 9.5zM752 400q-13 0 -22.5 -9.5t-9.5 -22.5v-256q0 -13 9.5 -22.5t22.5 -9.5t22.5 9.5t9.5 22.5v256 q0 13 -9.5 22.5t-22.5 9.5zM528 656q-13 0 -22.5 -9.5t-9.5 -22.5v-512q0 -13 9.5 -22.5t22.5 -9.5t22.5 9.5t9.5 22.5v512q0 13 -9.5 22.5t-22.5 9.5z" glyph-name="uniE61A" unicode=""/><glyph d="M213 213v-170h-42v170h42zM299 299h-214v-43v-256v-43h214v43v256v43zM512 683v-640h-43v640h43zM597 768h-213v-43v-725v-43h213v43v725v43zM811 384v-341h-43v341h43zM896 469h-43h-128h-42v-469v-43h213v43v469z" glyph-name="uniE61B" unicode=""/><glyph d="M933 793q-54 12 -145 -5q-1 0 -2 -1l-2 -3l-1 -1q-13 -4 -22 -15.5t-9 -25.5q0 -18 12.5 -30.5t29.5 -12.5h4q1 0 5.5 1.5t9.5 2t10.5 2.5t9.5 4t16.5 2t30.5 -2t39.5 -9.5t43 -18.5t43 -30.5t37.5 -45.5q32 -73 12 -140q0 -2 -0.5 -3t-1.5 -6t-2.5 -9.5t-2.5 -11 t-1 -11.5q0 -11 6 -18.5t15.5 -10.5t21.5 -3q34 0 40 42q15 48 17 91.5t-6 77t-24 62t-37 49t-47 37t-50 26.5t-50 16zM954 446q8 0 14 4t9.5 9.5t5.5 11.5q1 1 1 4q15 140 -99 159q-33 6 -61 2q-9 0 -15 -4.5t-10.5 -11.5t-4.5 -14q0 -12 9 -20.5t21 -8.5q96 22 103 -62 q3 -21 -2 -39q0 -13 8.5 -21.5t20.5 -8.5zM517 189q-8 -6 -17.5 -5.5t-13.5 8.5l-2 5q-1 2 -1 5v4q0 4 1 7l2 5q2 2 4 3l4 5q10 8 19 6.5t13 -10.5q4 -4 3 -10.5t-4 -12t-8 -10.5zM413 101q-8 -1 -14.5 -0.5t-12 2t-11 4t-9.5 7t-7 9t-5 10t-2 11.5q0 13 7.5 26t20.5 22.5 t29 10.5q11 1 21.5 -1t18 -6t13 -9.5t8 -13t2.5 -16.5q0 -13 -8 -25.5t-21.5 -21t-29.5 -9.5zM457 333q-36 -4 -64 -16.5t-44 -29.5t-27.5 -36t-15.5 -37.5t-5.5 -33.5t-1.5 -24l1 -10v-5q0 -3 2.5 -14t7 -20.5t14.5 -20.5t23 -18q82 -40 152 -24.5t113 70.5q17 21 22.5 52 t-2.5 62t-27.5 57t-58.5 40t-89 8zM493 -7q-133 -7 -226 51t-93 147q0 87 92 150t226.5 69.5t227 -44t92.5 -137.5q0 -89 -94.5 -159.5t-224.5 -76.5v0zM868 375q-18 4 -23.5 11t-2.5 13l4 7q1 1 2.5 3.5t5 10.5t5.5 16t3 19.5t-0.5 22t-7.5 23t-15 21.5q-18 18 -45.5 23 t-55 0.5t-52.5 -11.5t-41 -13l-16 -7q-12 -4 -20 -5t-12.5 0.5t-7 3.5t-1.5 9t1.5 12t3 15t3.5 17q0 14 -2 27t-8 29t-17.5 26t-29.5 16t-46.5 3.5t-63.5 -14.5q-44 -15 -88 -44t-76.5 -60t-60 -60.5t-41.5 -48.5l-14 -20q-41 -52 -60.5 -105t-18.5 -80v-26 q8 -59 36.5 -105.5t69 -75.5t94.5 -49.5t104 -29.5t105 -13q91 -7 189 14.5t182.5 74t118.5 126.5q21 43 21.5 81.5t-13 62t-35 42t-40.5 27.5t-34 11z" glyph-name="uniE61C" horiz-adv-x="1238" unicode=""/><glyph d="M1024 569l-512 -504l-512 502l131 136l381 -373l378 372z" glyph-name="uniE61D" unicode=""/><glyph d="M771 624h-483v-54h483v54zM730 291v218h-400v-218h400zM387 454h285v-105h-285v105zM512 896q-138 0 -256 -69t-187 -187t-69 -256t69 -256t187 -187t256 -69t256 69t187 187t69 256t-69 256t-187 187t-256 69zM512 -93q-97 0 -185 38t-152 102t-102 152t-38 185t38 185 t102 152t152 102t185 38t185 -38t152 -102t102 -152t38 -185t-38 -185t-102 -152t-152 -102t-185 -38zM691 259l-57 23q-29 -76 -55 -116h-99q-24 68 -58 116l-54 -23q30 -47 54 -96h-150v-54h512v54h-144q24 36 51 96z" glyph-name="uniE61E" unicode=""/></font>
</defs>
</svg>
